# xmcd CD database file
#
# Track frame offsets:
#	182
#	13952
#	28377
#
# Disc length: 653 seconds
#
# Revision: 0
# Processed by: cddbd v1.5.2PL0 Copyright (c) Steve Scherf et al.
# Submitted via: CDex 1.51
#
DISCID=23028b03
DTITLE=THE THOMPSON BROTHERS - SOLITARY MAN
DYEAR=1997
DGENRE=Country
TTITLE0=SOLITARY MAN
TTITLE1=CRY
TTITLE2=Cactus Wine
EXTD=YEAR: 1997
EXTT0=
EXTT1=
EXTT2=
PLAYORDER=
